
	<svg xmlns="http://www.w3.org/2000/svg" xmlns:xlink="http://www.w3.org/1999/xlink" version="1.1" width="128" height="128" viewBox="0 0 100 100">


		<defs>
			<linearGradient id="Gradient_2" gradientUnits="userSpaceOnUse" x1="50" y1="100" x2="50" y2="74" spreadMethod="pad">
<stop offset="0%" stop-color="#000000" stop-opacity="0.1"/>
<stop offset="100%" stop-color="#000000" stop-opacity="0.4"/>
</linearGradient><linearGradient id="Gradient_3" gradientUnits="userSpaceOnUse" x1="50" y1="53" x2="50" y2="0" spreadMethod="pad">
<stop offset="0%" stop-color="#FFFFFF" stop-opacity="0.1"/>
<stop offset="100%" stop-color="#FFFFFF" stop-opacity="0.4"/>
</linearGradient><linearGradient id="Gradient_4" gradientUnits="userSpaceOnUse" x1="55" y1="64" x2="55" y2="0" spreadMethod="pad">
<stop offset="0%" stop-color="#FFFFFF" stop-opacity="0.1"/>
<stop offset="100%" stop-color="#FFFFFF" stop-opacity="0.4"/>
</linearGradient><linearGradient id="Gradient_5" gradientUnits="userSpaceOnUse" x1="45" y1="64" x2="45" y2="0" spreadMethod="pad">
<stop offset="0%" stop-color="#FFFFFF" stop-opacity="0.1"/>
<stop offset="100%" stop-color="#FFFFFF" stop-opacity="0.4"/>
</linearGradient><g id="background">
<path fill="url(#background-gradient)" stroke="none" d=" M 98.3 1.65 Q 96.7 0 94.35 0 L 5.65 0 Q 3.3 0 1.65 1.65 0 3.35 0 5.7 L 0 80.15 Q 0 82.55 1.65 84.2 3.3 85.9 5.65 85.9 L 33.3 85.9 46.25 98.85 47.05 99.45 Q 48.15 100 49.75 100 51.25 100 52.35 99.45 52.95 99.2 53.15 98.85 L 66.1 85.9 94.35 85.9 Q 96.7 85.9 98.3 84.2 100 82.55 100 80.15 L 100 5.7 Q 100 3.35 98.3 1.65 Z"/>
</g><g id="middle-1">
<path fill="url(#Gradient_2)" stroke="none" d=" M 100 74.1 Q 99.9 76.35 98.3 77.95 96.7 79.6 94.35 79.6 L 66.1 79.6 53.7 92.05 Q 52.05 93.7 49.75 93.7 47.35 93.7 45.65 92.05 L 33.3 79.6 5.65 79.6 Q 3.3 79.6 1.65 77.95 0.1 76.35 0 74.1 L 0 80.15 Q 0 82.55 1.65 84.2 3.3 85.9 5.65 85.9 L 33.3 85.9 45.65 98.3 Q 47.35 100 49.75 100 52.05 100 53.7 98.3 L 66.1 85.9 94.35 85.9 Q 96.7 85.9 98.3 84.2 100 82.55 100 80.15 L 100 74.1 Z"/>
</g><mask id="mask">
<path fill="#FFFFFF" stroke="none" d=" M 98.3 1.65 Q 96.7 0 94.35 0 L 5.65 0 Q 3.3 0 1.65 1.65 0 3.35 0 5.7 L 0 74.1 Q 0.1 76.35 1.65 77.95 3.3 79.6 5.65 79.6 L 33.3 79.6 45.65 92.05 Q 47.35 93.7 49.75 93.7 52.05 93.7 53.7 92.05 L 66.1 79.6 94.35 79.6 Q 96.7 79.6 98.3 77.95 99.9 76.35 100 74.1 L 100 5.7 Q 100 3.35 98.3 1.65 Z"/>
</mask><g id="gloss-top">
<path fill="url(#Gradient_3)" stroke="none" d=" M 98.3 1.65 Q 96.7 0 94.35 0 L 5.65 0 Q 3.3 0 1.65 1.65 0 3.35 0 5.7 L 0 37.75 Q 9.9 44.95 22.55 48.85 35.65 52.95 50 52.95 64.3 52.95 77.4 48.85 90.1 44.95 100 37.75 L 100 5.7 Q 100 3.35 98.3 1.65 Z"/>
</g><g id="gloss-right">
<path fill="url(#Gradient_4)" stroke="none" d=" M 98.3 1.65 Q 96.65 0 94.3 0 L 9.65 0 Q 12.6 9.65 18.65 19.3 24.85 29.2 33.7 37.95 49.95 54 68.65 60.4 87.05 66.65 99.95 60.95 L 99.95 5.7 Q 99.95 3.35 98.3 1.65 Z"/>
</g><g id="gloss-left">
<path fill="url(#Gradient_5)" stroke="none" d=" M 81.35 19.3 Q 87.35 9.65 90.3 0 L 5.65 0 Q 3.3 0 1.65 1.65 0 3.35 0 5.7 L 0 60.95 Q 12.85 66.65 31.3 60.4 49.95 54 66.25 37.95 75.1 29.2 81.35 19.3 Z"/>
</g>
			
	<linearGradient id="background-gradient" x1="0" y1="0" y2="1" x2="0" >
		<stop stop-color="#00f946" offset="0%"/>
		<stop stop-color="#000000" offset="100%"/>
	</linearGradient>

			
	<filter id="inner-shadow" x="-50%" y="-50%" width="200%" height="200%">
		<feComponentTransfer in="SourceAlpha">
			<feFuncA type="table" tableValues="1 0" />
		</feComponentTransfer>
		<feComponentTransfer>
			<feFuncA type="linear" slope="0.9"/>
		</feComponentTransfer>
		<feGaussianBlur stdDeviation="0" />
		<feOffset dx="-0.9999999999999999" dy="1" result="offsetblur" />
		<feFlood flood-color="#000" result="color" />
		<feComposite in2="offsetblur" operator="in" />
		<feComposite in2="SourceAlpha" operator="in" />
		<feMerge>
			<feMergeNode in="SourceGraphic" />
			<feMergeNode />
		</feMerge>
	</filter>

			
	<filter id="drop-shadow">
		<feGaussianBlur in="SourceAlpha" stdDeviation="0" />
		<feComponentTransfer>
			<feFuncA type="linear" slope="0.9"/>
		</feComponentTransfer>
		<feOffset dx="-0.9999999999999999" dy="1" result="offsetblur" />
		<feFlood flood-color="#000" />
		<feComposite in2="offsetblur" operator="in" />
		<feMerge>
			<feMergeNode />
			<feMergeNode in="SourceGraphic" />
		</feMerge>
	</filter>

			<g transform="scale(2.0833333333333335)" id="picture"><path d="M33.1 15.5h-9.5c-.6 0-1 .5-1 1v3.7c0 .6.5 1 1 1h9.5c.6 0 1-.5 1-1v-3.7c.1-.5-.4-1-1-1zm0 7.3h-9.5c-.6 0-1 .5-1 1v7.6c0 .6.5 1 1 1h9.5c.6 0 1-.5 1-1v-7.6c.1-.5-.4-1-1-1zm-13.4-7.3h-4.8c-.6 0-1 .5-1 1v11.4c0 .6.5 1 1 1h4.8c.6 0 1-.5 1-1V16.5c0-.5-.4-1-1-1z M48 17.3V15h-8.2V9.2c0-.6-.5-1-1-1H33V0h-2.3v8.2h-2.9V0h-2.3v8.2h-2.9V0h-2.3v8.2h-2.9V0H15v8.2H9.2c-.6 0-1 .5-1 1V15H0v2.3h8.2v2.9H0v2.3h8.2v2.9H0v2.3h8.2v2.9H0V33h8.2v5.7c0 .6.5 1 1 1H15V48h2.3v-8.2h2.9V48h2.3v-8.2h2.9V48h2.3v-8.2h2.9V48H33v-8.2h5.7c.6 0 1-.5 1-1V33H48v-2.3h-8.2v-2.9H48v-2.3h-8.2v-2.9H48v-2.3h-8.2v-2.9H48zM36.4 35.4c0 .6-.5 1-1 1H12.6c-.6 0-1-.5-1-1V12.6c0-.6.5-1 1-1h22.8c.6 0 1 .5 1 1v22.8z"/></g>
			
	<linearGradient id="picture-gradient" x1="0" y1="0" y2="1" x2="0" >
		<stop stop-color="#ffffff" offset="0%"/>
		<stop stop-color="#e5eff9" offset="100%"/>
	</linearGradient>

		</defs>

		

			<use xlink:href="#background" fill="url(#background-gradient)" />

		<use xlink:href="#middle-1" />

			<g mask="url(#mask)">
				<g transform="
				        translate(
                                50 25
)
                            translate(0 0)  scale(0.5)  
                            translate(
                                -50 -25
)">
					<g filter="url(#drop-shadow)">
						<use xlink:href="#picture" fill="url(#picture-gradient)" filter="url(#inner-shadow)" />
					</g>
				</g>
			</g>

		



	</svg>
